<?xml version="1.0" encoding="utf-8"?>
<!-- Generator: Adobe Illustrator 24.2.1, SVG Export Plug-In . SVG Version: 6.00 Build 0)  -->
<svg version="1.1" id="Layer_1" xmlns="http://www.w3.org/2000/svg" xmlns:xlink="http://www.w3.org/1999/xlink" x="0px" y="0px"
	 viewBox="0 0 64 64" style="enable-background:new 0 0 64 64;" xml:space="preserve">
<style type="text/css">
	.st0{fill:#F2F2F2;}
</style>
<g>
	<path class="st0" d="M21,44c9.7,0,15-5.7,15-16c0-9.7-13.7-25-14.3-25.7c-0.4-0.4-1-0.4-1.5,0c0,0,0,0,0,0C19.7,3,6,18.3,6,28
		C6,38.3,11.3,44,21,44z M21,4.5C23.9,7.9,34,20.3,34,28c0,6.4-2.3,14-13,14S8,34.4,8,28C8,20.3,18.1,7.9,21,4.5z"/>
	<path class="st0" d="M49,46c5.7,0,9-3.8,9-10.5c0-6.3-7.9-14.8-8.3-15.2c-0.4-0.4-1.1-0.4-1.5,0c0,0,0,0,0,0
		c-0.3,0.4-8.3,9-8.3,15.2C40,42.2,43.3,46,49,46z M49,22.5c1.9,2.2,7,8.6,7,13c0,5.6-2.4,8.5-7,8.5s-7-2.9-7-8.5
		C42,31.1,47.1,24.7,49,22.5z"/>
	<path class="st0" d="M34.3,42.3C34,42.6,28,49.5,28,54c0,5.1,2.6,8,7,8s7-2.9,7-8c0-4.5-6-11.4-6.3-11.7
		C35.4,41.9,34.7,41.9,34.3,42.3C34.3,42.3,34.3,42.3,34.3,42.3z M35,60c-3.3,0-5-2-5-6c0-2.7,3.1-7.1,5-9.4c1.9,2.3,5,6.7,5,9.4
		C40,58,38.3,60,35,60z"/>
	<path class="st0" d="M18.9,40c0,0,0.1,0,0.1,0c0.6,0,1-0.4,1-1c0-0.5-0.4-0.9-0.9-1c-2.1-0.1-4-1.1-5.3-2.7
		c-2.7-3.5-1.8-9.1-1.8-9.1c0.1-0.5-0.3-1.1-0.9-1.1c-0.5-0.1-1,0.3-1.1,0.8c0,0.3-1,6.5,2.1,10.6C13.8,38.6,16.3,39.8,18.9,40z"/>
	<path class="st0" d="M48,42c1.8,0,3.6-0.8,4.9-2.1c1.1-1.4,1.5-3.3,1.1-5.1c-0.1-0.5-0.6-0.9-1.2-0.8c-0.5,0.1-0.9,0.6-0.8,1.1
		c0.3,1.2,0.1,2.4-0.6,3.4C50.5,39.5,49.3,40,48,40c-0.6,0-1,0.4-1,1S47.4,42,48,42z"/>
	<path class="st0" d="M34.4,56.1c-0.6-0.2-0.9-0.9-0.6-1.5c0-0.1,0.1-0.1,0.1-0.2c0.2-0.5,0-1.1-0.4-1.3c-0.5-0.2-1.1,0-1.3,0.4
		c-0.8,1.5-0.3,3.4,1.3,4.3c0.1,0,0.1,0.1,0.2,0.1c0.5,0.2,1.1,0,1.3-0.4C35.1,56.9,34.9,56.3,34.4,56.1L34.4,56.1L34.4,56.1z"/>
</g>
</svg>
